<svg xmlns="http://www.w3.org/2000/svg" width="1024" height="1024" viewBox="0 0 1024 1024">
<defs>
  <radialGradient id="bg" cx="50%" cy="42%" r="60%">
    <stop offset="0" stop-color="#23234a"/><stop offset="1" stop-color="#0a0a14"/>
  </radialGradient>
  <linearGradient id="gold" x1="0" y1="0" x2="1" y2="1">
    <stop offset="0" stop-color="#f7e3a1"/><stop offset=".45" stop-color="#d4af37"/>
    <stop offset=".75" stop-color="#8c6d1f"/><stop offset="1" stop-color="#e9c75a"/>
  </linearGradient>
  <linearGradient id="wood" x1="0" y1="0" x2="1" y2="0">
    <stop offset="0" stop-color="#5c3a1a"/><stop offset=".5" stop-color="#b87a3f"/>
    <stop offset="1" stop-color="#5c3a1a"/>
  </linearGradient>
</defs><clipPath id="inner"><circle cx="512" cy="512" r="425"/></clipPath>
<circle cx="512" cy="512" r="440" fill="url(#bg)"/>
<circle cx="512" cy="512" r="440" fill="none" stroke="url(#gold)" stroke-width="30"/>
<circle cx="512" cy="512" r="404" fill="none" stroke="#f3d98b" stroke-opacity=".7" stroke-width="4"/><g clip-path="url(#inner)"><g transform="translate(512 512) rotate(35)"><rect x="-95" y="-253" width="190" height="26" rx="8" fill="#c8894d" stroke="#4e3016" stroke-width="4"/><rect x="-95" y="-173" width="190" height="26" rx="8" fill="#c8894d" stroke="#4e3016" stroke-width="4"/><rect x="-95" y="-93" width="190" height="26" rx="8" fill="#c8894d" stroke="#4e3016" stroke-width="4"/><rect x="-95" y="-13" width="190" height="26" rx="8" fill="#c8894d" stroke="#4e3016" stroke-width="4"/><rect x="-95" y="67" width="190" height="26" rx="8" fill="#c8894d" stroke="#4e3016" stroke-width="4"/><rect x="-95" y="147" width="190" height="26" rx="8" fill="#c8894d" stroke="#4e3016" stroke-width="4"/><rect x="-95" y="227" width="190" height="26" rx="8" fill="#c8894d" stroke="#4e3016" stroke-width="4"/><rect x="-114" y="-300" width="38" height="600" rx="16" fill="url(#wood)" stroke="#4e3016" stroke-width="5"/><rect x="76" y="-300" width="38" height="600" rx="16" fill="url(#wood)" stroke="#4e3016" stroke-width="5"/></g><path d="M330 330 C470 300 600 420 500 520" fill="none" stroke="#0b2e0e" stroke-width="94" stroke-linecap="round"/><path d="M500 520 C400 620 470 760 650 730" fill="none" stroke="#0b2e0e" stroke-width="88" stroke-linecap="round"/><path d="M650 730 C700 722 735 700 752 668" fill="none" stroke="#0b2e0e" stroke-width="74" stroke-linecap="round"/><path d="M752 668 C764 645 767 622 762 600" fill="none" stroke="#0b2e0e" stroke-width="58" stroke-linecap="round"/><path d="M762 600 C760 588 756 580 750 572" fill="none" stroke="#0b2e0e" stroke-width="42" stroke-linecap="round"/><path d="M330 330 C470 300 600 420 500 520" fill="none" stroke="#2e7d32" stroke-width="82" stroke-linecap="round"/><path d="M500 520 C400 620 470 760 650 730" fill="none" stroke="#2e7d32" stroke-width="76" stroke-linecap="round"/><path d="M650 730 C700 722 735 700 752 668" fill="none" stroke="#2e7d32" stroke-width="62" stroke-linecap="round"/><path d="M752 668 C764 645 767 622 762 600" fill="none" stroke="#2e7d32" stroke-width="46" stroke-linecap="round"/><path d="M762 600 C760 588 756 580 750 572" fill="none" stroke="#2e7d32" stroke-width="30" stroke-linecap="round"/><path d="M330 330 C470 300 600 420 500 520" fill="none" stroke="#f9d34a" stroke-width="64" stroke-dasharray="20 44"/><path d="M500 520 C400 620 470 760 650 730" fill="none" stroke="#f9d34a" stroke-width="58" stroke-dasharray="20 44"/><path d="M650 730 C700 722 735 700 752 668" fill="none" stroke="#f9d34a" stroke-width="44" stroke-dasharray="20 44"/><path d="M752 668 C764 645 767 622 762 600" fill="none" stroke="#f9d34a" stroke-width="28" stroke-dasharray="20 44"/><path d="M762 600 C760 588 756 580 750 572" fill="none" stroke="#f9d34a" stroke-width="12" stroke-dasharray="20 44"/><path d="M242 334 L196 326 L180 312 M196 326 L182 344" fill="none" stroke="#e0263b" stroke-width="9" stroke-linecap="round" stroke-linejoin="round"/><ellipse cx="312" cy="334" rx="78" ry="60" fill="#1b5e20" stroke="#0b2e0e" stroke-width="8" transform="rotate(-10 312 334)"/><circle cx="284" cy="306" r="14" fill="#fff"/><circle cx="280" cy="306" r="7" fill="#111"/><circle cx="290" cy="360" r="14" fill="#fff"/><circle cx="286" cy="360" r="7" fill="#111"/>
<g fill="url(#gold)" stroke="#6b5216" stroke-width="5" stroke-linejoin="round">
  <path d="M422 205 L432 128 L476 168 L512 110 L548 168 L592 128 L602 205 Z"/>
  <rect x="418" y="200" width="188" height="26" rx="6"/>
</g>
<g fill="#f7e3a1"><circle cx="432" cy="126" r="11"/><circle cx="512" cy="106" r="12"/><circle cx="592" cy="126" r="11"/></g></g></svg>